<?xml version="1.0"?>
<svg xmlns="http://www.w3.org/2000/svg" id="Capa_1" enable-background="new 0 0 512 512" height="512px" viewBox="0 0 512 512" width="512px" class=""><g><g><circle cx="286" cy="316" r="15" data-original="#000000" class="active-path" data-old_color="#000000" fill="#01C6AC"/><circle cx="196" cy="406" r="15" data-original="#000000" class="active-path" data-old_color="#000000" fill="#01C6AC"/><path d="m196 512c107.52 0 195-88.48 195-196s-87.48-195-195-195-196 87.48-196 195 88.48 196 196 196zm0-61c-24.814 0-45-20.186-45-45s20.186-45 45-45 45 20.186 45 45-20.186 45-45 45zm-15-120v-30h30v30zm105-60c24.814 0 45 20.186 45 45s-20.186 45-45 45-45-20.186-45-45 20.186-45 45-45zm-90-90c24.814 0 45 20.186 45 45s-20.186 45-45 45-45-20.186-45-45 20.186-45 45-45zm-90 90c24.814 0 45 20.186 45 45s-20.186 45-45 45-45-20.186-45-45 20.186-45 45-45z" data-original="#000000" class="active-path" data-old_color="#000000" fill="#01C6AC"/><circle cx="196" cy="226" r="15" data-original="#000000" class="active-path" data-old_color="#000000" fill="#01C6AC"/><circle cx="106" cy="316" r="15" data-original="#000000" class="active-path" data-old_color="#000000" fill="#01C6AC"/><path d="m226 0h75v91h-75z" data-original="#000000" class="active-path" data-old_color="#000000" fill="#01C6AC"/><path d="m121 0h75v91h-75z" data-original="#000000" class="active-path" data-old_color="#000000" fill="#01C6AC"/><path d="m331 .317v90.683h30c66.167 0 121 53.833 121 120 0 44.445-24.985 82.95-61.066 103.691.002.441.066.868.066 1.309 0 30.793-6.244 60.145-17.488 86.896 64.193-29.91 108.488-94.077 108.488-168.151v-47.49c0-100.589-81.209-183.598-181-186.938z" data-original="#000000" class="active-path" data-old_color="#000000" fill="#01C6AC"/></g></g> </svg>
